<svg width="20" height="20" viewBox="0 0 20 20" fill="none" xmlns="http://www.w3.org/2000/svg">
<path d="M9.99984 10H15.8332M15.8332 10L13.3332 12.5M15.8332 10L13.3332 7.5M15.8332 5V4.16667C15.8332 3.72464 15.6576 3.30072 15.345 2.98816C15.0325 2.67559 14.6085 2.5 14.1665 2.5H5.83317C5.39114 2.5 4.96722 2.67559 4.65466 2.98816C4.3421 3.30072 4.1665 3.72464 4.1665 4.16667V15.8333C4.1665 16.2754 4.3421 16.6993 4.65466 17.0118C4.96722 17.3244 5.39114 17.5 5.83317 17.5H14.1665C14.6085 17.5 15.0325 17.3244 15.345 17.0118C15.6576 16.6993 15.8332 16.2754 15.8332 15.8333V15" stroke="#8B909A" stroke-width="1.5" stroke-linecap="round" stroke-linejoin="round"/>
</svg>
