<svg width="24" height="24" viewBox="0 0 24 24" fill="none" xmlns="http://www.w3.org/2000/svg">
<g clip-path="url(#clip0_502_11)">
<path d="M19 0H5C3.67441 0.00158786 2.40356 0.528882 1.46622 1.46622C0.528882 2.40356 0.00158786 3.67441 0 5L0 19C0.00158786 20.3256 0.528882 21.5964 1.46622 22.5338C2.40356 23.4711 3.67441 23.9984 5 24H19C20.3256 23.9984 21.5964 23.4711 22.5338 22.5338C23.4711 21.5964 23.9984 20.3256 24 19V5C23.9984 3.67441 23.4711 2.40356 22.5338 1.46622C21.5964 0.528882 20.3256 0.00158786 19 0V0ZM22 19C22 19.7956 21.6839 20.5587 21.1213 21.1213C20.5587 21.6839 19.7956 22 19 22H5C4.20435 22 3.44129 21.6839 2.87868 21.1213C2.31607 20.5587 2 19.7956 2 19V5C2 4.20435 2.31607 3.44129 2.87868 2.87868C3.44129 2.31607 4.20435 2 5 2H19C19.7956 2 20.5587 2.31607 21.1213 2.87868C21.6839 3.44129 22 4.20435 22 5V19Z" fill="#374957"/>
<g clip-path="url(#clip1_502_11)">
<path d="M12.5 12.4999C13.3406 12.4999 14.1623 12.2507 14.8612 11.7837C15.5601 11.3167 16.1048 10.6529 16.4265 9.87635C16.7482 9.09976 16.8323 8.24523 16.6683 7.42081C16.5044 6.59639 16.0996 5.83911 15.5052 5.24474C14.9108 4.65036 14.1536 4.24559 13.3291 4.0816C12.5047 3.91762 11.6502 4.00178 10.8736 4.32345C10.097 4.64513 9.43325 5.18986 8.96625 5.88877C8.49926 6.58768 8.25 7.40937 8.25 8.24994C8.25113 9.37677 8.69925 10.4571 9.49604 11.2539C10.2928 12.0507 11.3732 12.4988 12.5 12.4999ZM12.5 5.41661C13.0604 5.41661 13.6082 5.58278 14.0741 5.89411C14.5401 6.20544 14.9032 6.64795 15.1177 7.16567C15.3321 7.6834 15.3882 8.25308 15.2789 8.8027C15.1696 9.35231 14.8997 9.85716 14.5035 10.2534C14.1072 10.6497 13.6024 10.9195 13.0528 11.0288C12.5031 11.1382 11.9335 11.082 11.4157 10.8676C10.898 10.6532 10.4555 10.29 10.1442 9.82406C9.83284 9.35812 9.66667 8.81032 9.66667 8.24994C9.66667 7.49849 9.96518 6.77782 10.4965 6.24647C11.0279 5.71512 11.7486 5.41661 12.5 5.41661V5.41661Z" fill="#374957"/>
<path d="M12.5 13.9171C10.8098 13.919 9.1894 14.5912 7.99427 15.7864C6.79913 16.9815 6.12687 18.6019 6.125 20.2921C6.125 20.48 6.19963 20.6601 6.33247 20.793C6.4653 20.9258 6.64547 21.0004 6.83333 21.0004C7.0212 21.0004 7.20136 20.9258 7.3342 20.793C7.46704 20.6601 7.54167 20.48 7.54167 20.2921C7.54167 18.9771 8.06406 17.7159 8.99393 16.786C9.9238 15.8562 11.185 15.3338 12.5 15.3338C13.815 15.3338 15.0762 15.8562 16.0061 16.786C16.9359 17.7159 17.4583 18.9771 17.4583 20.2921C17.4583 20.48 17.533 20.6601 17.6658 20.793C17.7986 20.9258 17.9788 21.0004 18.1667 21.0004C18.3545 21.0004 18.5347 20.9258 18.6675 20.793C18.8004 20.6601 18.875 20.48 18.875 20.2921C18.8731 18.6019 18.2009 16.9815 17.0057 15.7864C15.8106 14.5912 14.1902 13.919 12.5 13.9171V13.9171Z" fill="#374957"/>
</g>
</g>
<g clip-path="url(#clip2_502_11)">
<path d="M19 0H5C3.6744 0.00158786 2.40356 0.528882 1.46622 1.46622C0.528882 2.40356 0.00158786 3.6744 0 5L0 19C0.00158786 20.3256 0.528882 21.5964 1.46622 22.5338C2.40356 23.4711 3.6744 23.9984 5 24H19C20.3256 23.9984 21.5964 23.4711 22.5338 22.5338C23.4711 21.5964 23.9984 20.3256 24 19V5C23.9984 3.6744 23.4711 2.40356 22.5338 1.46622C21.5964 0.528882 20.3256 0.00158786 19 0V0ZM22 19C22 19.7956 21.6839 20.5587 21.1213 21.1213C20.5587 21.6839 19.7956 22 19 22H5C4.20435 22 3.44129 21.6839 2.87868 21.1213C2.31607 20.5587 2 19.7956 2 19V5C2 4.20435 2.31607 3.44129 2.87868 2.87868C3.44129 2.31607 4.20435 2 5 2H19C19.7956 2 20.5587 2.31607 21.1213 2.87868C21.6839 3.44129 22 4.20435 22 5V19Z" fill="#374957"/>
<g clip-path="url(#clip3_502_11)">
<path d="M12.5 12.4999C13.3406 12.4999 14.1623 12.2507 14.8612 11.7837C15.5601 11.3167 16.1048 10.6529 16.4265 9.87635C16.7482 9.09976 16.8323 8.24523 16.6683 7.42081C16.5044 6.59639 16.0996 5.83911 15.5052 5.24474C14.9108 4.65036 14.1536 4.24559 13.3291 4.0816C12.5047 3.91762 11.6502 4.00178 10.8736 4.32345C10.097 4.64513 9.43325 5.18986 8.96625 5.88877C8.49926 6.58768 8.25 7.40937 8.25 8.24994C8.25113 9.37677 8.69925 10.4571 9.49604 11.2539C10.2928 12.0507 11.3732 12.4988 12.5 12.4999ZM12.5 5.41661C13.0604 5.41661 13.6082 5.58278 14.0741 5.89411C14.5401 6.20544 14.9032 6.64795 15.1177 7.16567C15.3321 7.6834 15.3882 8.25308 15.2789 8.8027C15.1696 9.35231 14.8997 9.85716 14.5035 10.2534C14.1072 10.6497 13.6024 10.9195 13.0528 11.0288C12.5031 11.1382 11.9335 11.082 11.4157 10.8676C10.898 10.6532 10.4555 10.29 10.1442 9.82406C9.83284 9.35812 9.66667 8.81032 9.66667 8.24994C9.66667 7.49849 9.96518 6.77782 10.4965 6.24647C11.0279 5.71512 11.7486 5.41661 12.5 5.41661V5.41661Z" fill="#374957"/>
<path d="M12.5 13.9171C10.8098 13.919 9.1894 14.5912 7.99427 15.7864C6.79913 16.9815 6.12687 18.6019 6.125 20.2921C6.125 20.48 6.19963 20.6601 6.33247 20.793C6.4653 20.9258 6.64547 21.0004 6.83333 21.0004C7.0212 21.0004 7.20136 20.9258 7.3342 20.793C7.46704 20.6601 7.54167 20.48 7.54167 20.2921C7.54167 18.9771 8.06406 17.7159 8.99393 16.786C9.9238 15.8562 11.185 15.3338 12.5 15.3338C13.815 15.3338 15.0762 15.8562 16.0061 16.786C16.9359 17.7159 17.4583 18.9771 17.4583 20.2921C17.4583 20.48 17.533 20.6601 17.6658 20.793C17.7986 20.9258 17.9788 21.0004 18.1667 21.0004C18.3545 21.0004 18.5347 20.9258 18.6675 20.793C18.8004 20.6601 18.875 20.48 18.875 20.2921C18.8731 18.6019 18.2009 16.9815 17.0057 15.7864C15.8106 14.5912 14.1902 13.919 12.5 13.9171V13.9171Z" fill="#374957"/>
</g>
</g>
<defs>
<clipPath id="clip0_502_11">
<rect width="24" height="24" fill="white"/>
</clipPath>
<clipPath id="clip1_502_11">
<rect width="17" height="17" fill="white" transform="translate(4 4)"/>
</clipPath>
<clipPath id="clip2_502_11">
<rect width="24" height="24" fill="white"/>
</clipPath>
<clipPath id="clip3_502_11">
<rect width="17" height="17" fill="white" transform="translate(4 4)"/>
</clipPath>
</defs>
</svg>
