<svg width="25" height="24" viewBox="0 0 25 24" fill="none" xmlns="http://www.w3.org/2000/svg">
<path d="M12.4004 18.75C6.57039 18.75 3.83039 12.56 3.71039 12.3C3.67078 12.2049 3.65039 12.103 3.65039 12C3.65039 11.897 3.67078 11.7951 3.71039 11.7C3.83039 11.44 6.57039 5.25 12.4004 5.25C18.2304 5.25 20.9704 11.44 21.0904 11.7C21.13 11.7951 21.1504 11.897 21.1504 12C21.1504 12.103 21.13 12.2049 21.0904 12.3C20.9704 12.56 18.2304 18.75 12.4004 18.75ZM5.23039 12C5.82039 13.15 8.23039 17.25 12.4004 17.25C16.5704 17.25 18.9804 13.15 19.5704 12C18.9804 10.85 16.5704 6.75 12.4004 6.75C8.23039 6.75 5.82039 10.85 5.23039 12Z" fill="#8B909A"/>
<path d="M12.4004 15.25C11.7576 15.25 11.1292 15.0594 10.5948 14.7023C10.0603 14.3452 9.64377 13.8376 9.39778 13.2437C9.1518 12.6499 9.08744 11.9964 9.21284 11.366C9.33824 10.7355 9.64777 10.1564 10.1023 9.7019C10.5568 9.24738 11.1359 8.93785 11.7663 8.81245C12.3968 8.68705 13.0503 8.75141 13.6441 8.99739C14.238 9.24338 14.7456 9.65994 15.1027 10.1944C15.4598 10.7289 15.6504 11.3572 15.6504 12C15.6478 12.8611 15.3045 13.6863 14.6956 14.2952C14.0867 14.9041 13.2615 15.2474 12.4004 15.25ZM12.4004 10.25C12.0543 10.25 11.7159 10.3526 11.4281 10.5449C11.1404 10.7372 10.9161 11.0105 10.7836 11.3303C10.6512 11.6501 10.6165 12.0019 10.684 12.3414C10.7515 12.6809 10.9182 12.9927 11.163 13.2374C11.4077 13.4822 11.7195 13.6489 12.059 13.7164C12.3985 13.7839 12.7503 13.7492 13.0701 13.6168C13.3899 13.4843 13.6632 13.26 13.8555 12.9722C14.0478 12.6845 14.1504 12.3461 14.1504 12C14.1478 11.5367 13.9625 11.0931 13.6349 10.7655C13.3073 10.4378 12.8637 10.2526 12.4004 10.25Z" fill="#8B909A"/>
</svg>
